#N canvas 234 11 1115 767 10;
#X floatatom 188 439 5 0 0 0 - - -;
#X floatatom 233 363 5 0 0 0 - - -;
#X msg 188 307 53;
#X msg 236 307 54;
#X obj 188 1 bng 15 250 50 0 empty empty empty 17 7 0 10 -262144 -1
-1;
#X obj 188 37 +;
#X msg 188 18 1;
#X obj 236 1 bng 15 250 50 0 empty empty empty 17 7 0 10 -262144 -1
-1;
#X obj 236 37 +;
#X msg 236 18 1;
#X obj 284 1 bng 15 250 50 0 empty empty empty 17 7 0 10 -262144 -1
-1;
#X obj 284 37 +;
#X msg 284 18 1;
#X obj 332 1 bng 15 250 50 0 empty empty empty 17 7 0 10 -262144 -1
-1;
#X obj 332 37 +;
#X msg 332 18 1;
#X msg 284 307 55;
#X msg 332 307 56;
#X obj 188 -52 inlet;
#X obj 188 476 outlet;
#X obj 395 40 inlet;
#X obj 188 250 t b f;
#X obj 236 250 t b f;
#X obj 284 250 t b f;
#X obj 332 250 t b f;
#X obj 188 457 pack f f;
#X obj 434 478 s instA;
#X msg 423 440 3;
#X msg 395 440 53;
#X obj 395 459 pack f f;
#X obj 395 421 t b b;
#X obj 188 269 f;
#X obj 188 288 t b f;
#X obj 395 383 t b b b;
#X obj 236 269 f;
#X obj 236 288 t b f;
#X obj 284 269 f;
#X obj 284 288 t b f;
#X obj 332 269 f;
#X obj 332 288 t b f;
#X msg 510 440 3;
#X obj 482 459 pack f f;
#X obj 482 421 t b b;
#X obj 482 383 t b b b;
#X obj 414 402 delay 100;
#X obj 502 402 delay 100;
#X obj 521 478 s instB;
#X msg 597 440 3;
#X obj 569 459 pack f f;
#X obj 569 421 t b b;
#X obj 569 383 t b b b;
#X msg 684 440 3;
#X obj 656 459 pack f f;
#X obj 656 421 t b b;
#X obj 656 383 t b b b;
#X obj 588 402 delay 100;
#X obj 676 402 delay 100;
#X obj 608 478 s instC;
#X obj 695 478 s instD;
#X msg 482 440 54;
#X msg 569 440 55;
#X msg 656 440 56;
#X obj 818 347 loadbang;
#X msg 818 366 100;
#X obj 818 385 t f f f f;
#X obj 188 -33 route 53 54 55 56;
#X obj 188 518 r randAll;
#X obj 510 634 r clear;
#X msg 510 653 0;
#X obj 510 672 t f f f f;
#X obj -207 249 r shift;
#X obj 521 40 inlet;
#X obj 395 59 t b b b b;
#X obj 521 59 s \$0-setPack;
#X obj 521 78 r \$0-setPack;
#X obj -136 719 s \$0-setPack;
#X obj 188 708 s \$0-setPack;
#X obj 188 537 t b b b b;
#X obj 188 689 pack f f f f;
#X obj 521 97 unpack f f f f;
#X obj -136 662 pack f f f f;
#X obj -207 268 route 0 2;
#X obj -183 430 t f b;
#X obj -183 392 f;
#X msg -207 287 1;
#X obj -207 392 +;
#X obj -207 430 % 4;
#X obj -207 449 pack f f;
#X obj -207 373 t f b;
#X obj -101 430 t f b;
#X obj -101 392 f;
#X obj -125 392 +;
#X obj -125 430 % 4;
#X obj -125 449 pack f f;
#X obj -125 373 t f b;
#X obj -19 430 t f b;
#X obj -19 392 f;
#X obj -43 392 +;
#X obj -43 430 % 4;
#X obj -43 449 pack f f;
#X obj -43 373 t f b;
#X obj 63 430 t f b;
#X obj 63 392 f;
#X obj 39 392 +;
#X obj 39 430 % 4;
#X obj 39 449 pack f f;
#X obj 39 373 t f b;
#X obj 188 231 t f f f;
#X obj 236 231 t f f f;
#X obj 284 231 t f f f;
#X obj 332 231 t f f f;
#X msg -179 287 3;
#X obj -121 523 unpack;
#X obj -121 580 spigot;
#X obj -88 561 == 0;
#X obj -121 561 f;
#X obj -121 542 t b f;
#X floatatom -121 599 5 0 0 0 - - -;
#X msg -153 449 0;
#X msg -71 449 1;
#X msg 11 449 2;
#X msg 93 449 3;
#X obj -58 523 unpack;
#X obj -58 580 spigot;
#X obj -58 561 f;
#X obj -58 542 t b f;
#X floatatom -58 599 5 0 0 0 - - -;
#X obj 5 523 unpack;
#X obj 5 580 spigot;
#X obj 5 561 f;
#X obj 5 542 t b f;
#X floatatom 5 599 5 0 0 0 - - -;
#X obj 68 523 unpack;
#X obj 68 580 spigot;
#X obj 68 561 f;
#X obj 68 542 t b f;
#X floatatom 68 599 5 0 0 0 - - -;
#X obj -25 561 == 1;
#X obj 38 561 == 2;
#X obj 101 561 == 3;
#X obj -121 496 t l l l l;
#X obj -207 411 + 4;
#X obj -125 411 + 4;
#X obj -43 411 + 4;
#X obj 39 411 + 4;
#X obj -136 617 f;
#X obj -73 617 f;
#X obj -10 617 f;
#X obj 53 617 f;
#X obj -207 306 t b f f f f;
#X obj -136 700 spigot;
#X obj -135 306 t b f f f f;
#X msg -207 325 1;
#X msg -135 287 0;
#X msg -135 325 0;
#X obj -58 700 spigot;
#X obj -58 719 s \$0-sendPack;
#X obj -25 681 invert;
#X obj -207 496 t b b b b f f;
#X obj -136 681 t l l;
#X obj 715 606 r \$0-sendPack;
#X obj 715 625 outlet;
#X obj 521 121 f;
#X obj 545 121 f;
#X obj 569 121 f;
#X obj 593 121 f;
#X obj 617 121 t b b b b;
#X obj 617 102 r updateBeats;
#X floatatom 188 208 5 0 0 0 - - -;
#X floatatom 236 208 5 0 0 0 - - -;
#X floatatom 284 208 5 0 0 0 - - -;
#X floatatom 332 208 5 0 0 0 - - -;
#X obj 188 56 % 2;
#X obj 236 56 % 2;
#X obj 284 56 % 2;
#X obj 332 56 % 2;
#X floatatom 188 661 5 0 0 0 - - -;
#X obj 188 623 random 100;
#X obj 188 566 t b b;
#X obj 188 642 < 35;
#X obj 188 585 random 100;
#X obj 188 604 < 10;
#X obj 218 604 route 1;
#X msg 218 642 2;
#X floatatom 266 661 5 0 0 0 - - -;
#X obj 266 623 random 100;
#X obj 266 566 t b b;
#X obj 266 642 < 35;
#X obj 266 585 random 100;
#X obj 266 604 < 10;
#X obj 296 604 route 1;
#X msg 296 642 2;
#X floatatom 344 661 5 0 0 0 - - -;
#X obj 344 623 random 100;
#X obj 344 566 t b b;
#X obj 344 642 < 35;
#X obj 344 585 random 100;
#X obj 344 604 < 10;
#X obj 374 604 route 1;
#X msg 374 642 2;
#X floatatom 422 661 5 0 0 0 - - -;
#X obj 422 623 random 100;
#X obj 422 566 t b b;
#X obj 422 642 < 35;
#X obj 422 585 random 100;
#X obj 422 604 < 10;
#X obj 452 604 route 1;
#X msg 452 642 2;
#X obj 252 400 == 2;
#X obj 233 419 spigot;
#X obj 233 381 t b f f;
#X msg 233 438 5;
#X msg 434 421 1;
#X msg 521 421 1;
#X msg 608 421 1;
#X msg 695 421 1;
#X obj 395 326 f;
#X msg 395 364 0;
#X msg 429 364 2;
#X obj 395 345 route 0 1 2;
#X obj 482 326 f;
#X msg 482 364 0;
#X msg 516 364 2;
#X obj 482 345 route 0 1 2;
#X obj 569 326 f;
#X msg 569 364 0;
#X msg 603 364 2;
#X obj 569 345 route 0 1 2;
#X obj 656 326 f;
#X msg 656 364 0;
#X msg 690 364 2;
#X obj 656 345 route 0 1 2;
#X obj 188 94 t b f;
#X obj 188 113 f;
#X obj 188 132 t b f;
#X obj 194 151 == 1;
#X obj 188 170 spigot;
#X msg 188 189 2;
#X obj 188 75 r shPr;
#X obj 236 94 t b f;
#X obj 236 113 f;
#X obj 236 132 t b f;
#X obj 242 151 == 1;
#X obj 236 170 spigot;
#X msg 236 189 2;
#X obj 236 75 r shPr;
#X obj 284 94 t b f;
#X obj 284 113 f;
#X obj 284 132 t b f;
#X obj 290 151 == 1;
#X obj 284 170 spigot;
#X msg 284 189 2;
#X obj 284 75 r shPr;
#X obj 332 94 t b f;
#X obj 332 113 f;
#X obj 332 132 t b f;
#X obj 338 151 == 1;
#X obj 332 170 spigot;
#X msg 332 189 2;
#X obj 332 75 r shPr;
#X obj 248 518 r randSeq;
#X connect 0 0 25 0;
#X connect 1 0 210 0;
#X connect 2 0 0 0;
#X connect 3 0 0 0;
#X connect 4 0 6 0;
#X connect 5 0 172 0;
#X connect 6 0 5 0;
#X connect 7 0 9 0;
#X connect 8 0 173 0;
#X connect 9 0 8 0;
#X connect 10 0 12 0;
#X connect 11 0 174 0;
#X connect 12 0 11 0;
#X connect 13 0 15 0;
#X connect 14 0 175 0;
#X connect 15 0 14 0;
#X connect 16 0 0 0;
#X connect 17 0 0 0;
#X connect 18 0 65 0;
#X connect 20 0 72 0;
#X connect 21 0 31 0;
#X connect 21 1 31 1;
#X connect 22 0 34 0;
#X connect 22 1 34 1;
#X connect 23 0 36 0;
#X connect 23 1 36 1;
#X connect 24 0 38 0;
#X connect 24 1 38 1;
#X connect 25 0 19 0;
#X connect 27 0 29 1;
#X connect 28 0 29 0;
#X connect 29 0 19 0;
#X connect 30 0 28 0;
#X connect 30 1 27 0;
#X connect 31 0 32 0;
#X connect 32 0 2 0;
#X connect 32 1 1 0;
#X connect 33 0 30 0;
#X connect 33 1 44 0;
#X connect 33 2 212 0;
#X connect 34 0 35 0;
#X connect 35 0 3 0;
#X connect 35 1 1 0;
#X connect 36 0 37 0;
#X connect 37 0 16 0;
#X connect 37 1 1 0;
#X connect 38 0 39 0;
#X connect 39 0 17 0;
#X connect 39 1 1 0;
#X connect 40 0 41 1;
#X connect 41 0 19 0;
#X connect 42 0 59 0;
#X connect 42 1 40 0;
#X connect 43 0 42 0;
#X connect 43 1 45 0;
#X connect 43 2 213 0;
#X connect 44 0 31 0;
#X connect 45 0 34 0;
#X connect 47 0 48 1;
#X connect 48 0 19 0;
#X connect 49 0 60 0;
#X connect 49 1 47 0;
#X connect 50 0 49 0;
#X connect 50 1 55 0;
#X connect 50 2 214 0;
#X connect 51 0 52 1;
#X connect 52 0 19 0;
#X connect 53 0 61 0;
#X connect 53 1 51 0;
#X connect 54 0 53 0;
#X connect 54 1 56 0;
#X connect 54 2 215 0;
#X connect 55 0 36 0;
#X connect 56 0 38 0;
#X connect 59 0 41 0;
#X connect 60 0 48 0;
#X connect 61 0 52 0;
#X connect 62 0 63 0;
#X connect 63 0 64 0;
#X connect 64 0 44 1;
#X connect 64 1 45 1;
#X connect 64 2 55 1;
#X connect 64 3 56 1;
#X connect 65 0 4 0;
#X connect 65 1 7 0;
#X connect 65 2 10 0;
#X connect 65 3 13 0;
#X connect 66 0 77 0;
#X connect 67 0 68 0;
#X connect 68 0 69 0;
#X connect 69 0 78 0;
#X connect 69 1 78 1;
#X connect 69 2 78 2;
#X connect 69 3 78 3;
#X connect 70 0 81 0;
#X connect 71 0 73 0;
#X connect 72 0 216 0;
#X connect 72 1 220 0;
#X connect 72 2 224 0;
#X connect 72 3 228 0;
#X connect 74 0 79 0;
#X connect 77 0 178 0;
#X connect 77 1 186 0;
#X connect 77 2 194 0;
#X connect 77 3 202 0;
#X connect 78 0 76 0;
#X connect 79 0 162 1;
#X connect 79 1 163 1;
#X connect 79 2 164 1;
#X connect 79 3 165 1;
#X connect 80 0 159 0;
#X connect 81 0 84 0;
#X connect 81 1 111 0;
#X connect 81 2 153 0;
#X connect 82 0 87 1;
#X connect 82 1 118 0;
#X connect 83 0 82 0;
#X connect 84 0 149 0;
#X connect 85 0 141 0;
#X connect 86 0 87 0;
#X connect 87 0 140 0;
#X connect 88 0 85 0;
#X connect 88 1 83 0;
#X connect 89 0 93 1;
#X connect 89 1 119 0;
#X connect 90 0 89 0;
#X connect 91 0 142 0;
#X connect 92 0 93 0;
#X connect 93 0 140 0;
#X connect 94 0 91 0;
#X connect 94 1 90 0;
#X connect 95 0 99 1;
#X connect 95 1 120 0;
#X connect 96 0 95 0;
#X connect 97 0 143 0;
#X connect 98 0 99 0;
#X connect 99 0 140 0;
#X connect 100 0 97 0;
#X connect 100 1 96 0;
#X connect 101 0 105 1;
#X connect 101 1 121 0;
#X connect 102 0 101 0;
#X connect 103 0 144 0;
#X connect 104 0 105 0;
#X connect 105 0 140 0;
#X connect 106 0 103 0;
#X connect 106 1 102 0;
#X connect 107 0 21 0;
#X connect 107 1 83 1;
#X connect 108 0 22 0;
#X connect 108 1 90 1;
#X connect 109 0 23 0;
#X connect 109 1 96 1;
#X connect 110 0 24 0;
#X connect 110 1 102 1;
#X connect 111 0 149 0;
#X connect 112 0 116 0;
#X connect 112 1 115 1;
#X connect 113 0 117 0;
#X connect 114 0 113 1;
#X connect 115 0 113 0;
#X connect 116 0 115 0;
#X connect 116 1 114 0;
#X connect 117 0 145 1;
#X connect 118 0 85 1;
#X connect 119 0 91 1;
#X connect 120 0 97 1;
#X connect 121 0 103 1;
#X connect 122 0 125 0;
#X connect 122 1 124 1;
#X connect 123 0 126 0;
#X connect 124 0 123 0;
#X connect 125 0 124 0;
#X connect 125 1 137 0;
#X connect 126 0 146 1;
#X connect 127 0 130 0;
#X connect 127 1 129 1;
#X connect 128 0 131 0;
#X connect 129 0 128 0;
#X connect 130 0 129 0;
#X connect 130 1 138 0;
#X connect 131 0 147 1;
#X connect 132 0 135 0;
#X connect 132 1 134 1;
#X connect 133 0 136 0;
#X connect 134 0 133 0;
#X connect 135 0 134 0;
#X connect 135 1 139 0;
#X connect 136 0 148 1;
#X connect 137 0 123 1;
#X connect 138 0 128 1;
#X connect 139 0 133 1;
#X connect 140 0 112 0;
#X connect 140 1 122 0;
#X connect 140 2 127 0;
#X connect 140 3 132 0;
#X connect 141 0 86 0;
#X connect 142 0 92 0;
#X connect 143 0 98 0;
#X connect 144 0 104 0;
#X connect 145 0 80 0;
#X connect 146 0 80 1;
#X connect 147 0 80 2;
#X connect 148 0 80 3;
#X connect 149 0 152 0;
#X connect 149 1 88 0;
#X connect 149 2 94 0;
#X connect 149 3 100 0;
#X connect 149 4 106 0;
#X connect 150 0 75 0;
#X connect 151 0 154 0;
#X connect 151 1 88 0;
#X connect 151 2 94 0;
#X connect 151 3 100 0;
#X connect 151 4 106 0;
#X connect 152 0 158 0;
#X connect 153 0 151 0;
#X connect 154 0 158 0;
#X connect 155 0 156 0;
#X connect 157 0 155 1;
#X connect 158 0 145 0;
#X connect 158 1 146 0;
#X connect 158 2 147 0;
#X connect 158 3 148 0;
#X connect 158 4 150 1;
#X connect 158 5 157 0;
#X connect 159 0 150 0;
#X connect 159 1 155 0;
#X connect 160 0 161 0;
#X connect 162 0 168 0;
#X connect 163 0 169 0;
#X connect 164 0 170 0;
#X connect 165 0 171 0;
#X connect 166 0 162 0;
#X connect 166 1 163 0;
#X connect 166 2 164 0;
#X connect 166 3 165 0;
#X connect 167 0 166 0;
#X connect 168 0 107 0;
#X connect 168 0 216 1;
#X connect 168 0 5 1;
#X connect 169 0 108 0;
#X connect 169 0 220 1;
#X connect 169 0 8 1;
#X connect 170 0 109 0;
#X connect 170 0 224 1;
#X connect 170 0 11 1;
#X connect 171 0 110 0;
#X connect 171 0 228 1;
#X connect 171 0 14 1;
#X connect 172 0 232 0;
#X connect 173 0 239 0;
#X connect 174 0 170 0;
#X connect 174 0 246 0;
#X connect 175 0 253 0;
#X connect 176 0 78 0;
#X connect 177 0 179 0;
#X connect 178 0 180 0;
#X connect 178 1 177 0;
#X connect 179 0 176 0;
#X connect 180 0 181 0;
#X connect 181 0 182 0;
#X connect 182 0 183 0;
#X connect 183 0 176 0;
#X connect 184 0 78 1;
#X connect 185 0 187 0;
#X connect 186 0 188 0;
#X connect 186 1 185 0;
#X connect 187 0 184 0;
#X connect 188 0 189 0;
#X connect 189 0 190 0;
#X connect 190 0 191 0;
#X connect 191 0 184 0;
#X connect 192 0 78 2;
#X connect 193 0 195 0;
#X connect 194 0 196 0;
#X connect 194 1 193 0;
#X connect 195 0 192 0;
#X connect 196 0 197 0;
#X connect 197 0 198 0;
#X connect 198 0 199 0;
#X connect 199 0 192 0;
#X connect 200 0 78 3;
#X connect 201 0 203 0;
#X connect 202 0 204 0;
#X connect 202 1 201 0;
#X connect 203 0 200 0;
#X connect 204 0 205 0;
#X connect 205 0 206 0;
#X connect 206 0 207 0;
#X connect 207 0 200 0;
#X connect 208 0 209 1;
#X connect 209 0 211 0;
#X connect 210 0 209 0;
#X connect 210 1 208 0;
#X connect 210 2 25 1;
#X connect 211 0 25 1;
#X connect 212 0 26 0;
#X connect 213 0 46 0;
#X connect 214 0 57 0;
#X connect 215 0 58 0;
#X connect 216 0 219 0;
#X connect 217 0 26 0;
#X connect 218 0 26 0;
#X connect 219 0 217 0;
#X connect 219 1 33 0;
#X connect 219 2 218 0;
#X connect 220 0 223 0;
#X connect 221 0 46 0;
#X connect 222 0 46 0;
#X connect 223 0 221 0;
#X connect 223 1 43 0;
#X connect 223 2 222 0;
#X connect 224 0 227 0;
#X connect 225 0 57 0;
#X connect 226 0 57 0;
#X connect 227 0 225 0;
#X connect 227 1 50 0;
#X connect 227 2 226 0;
#X connect 228 0 231 0;
#X connect 229 0 58 0;
#X connect 230 0 58 0;
#X connect 231 0 229 0;
#X connect 231 1 54 0;
#X connect 231 2 230 0;
#X connect 232 0 233 0;
#X connect 232 1 168 0;
#X connect 233 0 234 0;
#X connect 234 0 236 0;
#X connect 234 1 235 0;
#X connect 235 0 236 1;
#X connect 236 0 237 0;
#X connect 237 0 168 0;
#X connect 238 0 233 1;
#X connect 239 0 240 0;
#X connect 239 1 169 0;
#X connect 240 0 241 0;
#X connect 241 0 243 0;
#X connect 241 1 242 0;
#X connect 242 0 243 1;
#X connect 243 0 244 0;
#X connect 244 0 169 0;
#X connect 245 0 240 1;
#X connect 246 0 247 0;
#X connect 246 1 170 0;
#X connect 247 0 248 0;
#X connect 248 0 250 0;
#X connect 248 1 249 0;
#X connect 249 0 250 1;
#X connect 250 0 251 0;
#X connect 251 0 170 0;
#X connect 252 0 247 1;
#X connect 253 0 254 0;
#X connect 253 1 171 0;
#X connect 254 0 255 0;
#X connect 255 0 257 0;
#X connect 255 1 256 0;
#X connect 256 0 257 1;
#X connect 257 0 258 0;
#X connect 258 0 171 0;
#X connect 259 0 254 1;
#X connect 260 0 77 0;
