#N canvas 198 6 1114 741 10;
#X obj 48 49 notein 1;
#X obj 48 68 spigot;
#X obj 48 125 spigot;
#X obj 48 87 t f f;
#X obj 67 106 == 94;
#X obj 48 201 s shift;
#X obj 102 49 notein 1;
#X obj 102 68 spigot;
#X obj 102 125 spigot;
#X obj 102 87 t f f;
#X obj 102 201 s shift;
#X obj 121 106 == 95;
#X msg 48 182 2;
#X msg 102 182 0;
#X obj 48 220 notein 1;
#X obj 48 239 spigot;
#X obj 48 296 spigot;
#X obj 48 258 t f f;
#X obj 53 410 s shift;
#X obj 102 220 notein 1;
#X obj 102 239 spigot;
#X obj 102 296 spigot;
#X obj 102 258 t f f;
#X obj 107 410 s shift;
#X obj 67 277 == 97;
#X obj 121 277 == 96;
#X obj 80 391 s shBts;
#X obj 80 372 - 2;
#X msg 48 315 1;
#X msg 102 315 3;
#X obj 48 353 s updateBeats;
#X obj 48 334 t b f f;
#X obj 102 334 t b f f;
#X obj 48 163 s updateBeats;
#X obj 102 144 t b b;
#X obj 48 144 t b b;
#X obj 227 50 notein 1;
#X obj 227 164 spigot;
#X obj 227 107 spigot;
#X obj 227 69 t f f;
#X obj 251 295 s randAll;
#X obj 246 88 == 86;
#X obj 227 145 noteout 1;
#X obj 263 69 t f f;
#X obj 227 126 t f f;
#X obj 362 183 spigot;
#X obj 362 126 spigot;
#X obj 362 88 t f f;
#X obj 362 202 bng 15 250 50 0 empty empty empty 17 7 0 10 -262144
-1 -1;
#X obj 398 88 t f f;
#X obj 362 145 t f f;
#X obj 381 107 == 52;
#X obj 362 49 notein;
#X obj 362 219 f;
#X obj 404 145 noteout;
#X obj 362 295 s instA;
#X obj 380 314 s instB;
#X obj 409 295 s instC;
#X obj 428 314 s instD;
#X obj 645 51 notein 1;
#X obj 645 70 spigot;
#X obj 645 127 spigot;
#X obj 645 89 t f f;
#X obj 664 108 == 81;
#X obj 672 184 s clear;
#X obj 645 165 s updateBeats;
#X obj 645 146 t b b;
#X obj 227 219 s updateBeats;
#X obj 227 200 t b b;
#X obj 227 183 bng 15 250 50 0 empty empty empty 17 7 0 10 -262144
-1 -1;
#X msg 362 257 1;
#X msg 380 276 1;
#X msg 409 257 1;
#X msg 427 276 1;
#X obj 486 345 bng 15 250 50 0 empty empty empty 17 7 0 10 -262144
-1 -1;
#X obj 486 362 tgl 15 0 empty empty empty 17 7 0 10 -262144 -1 -1 0
1;
#X obj 486 417 + 4;
#X obj 510 345 bng 15 250 50 0 empty empty empty 17 7 0 10 -262144
-1 -1;
#X obj 510 362 tgl 15 0 empty empty empty 17 7 0 10 -262144 -1 -1 0
1;
#X obj 510 417 + 4;
#X obj 534 345 bng 15 250 50 0 empty empty empty 17 7 0 10 -262144
-1 -1;
#X obj 534 362 tgl 15 0 empty empty empty 17 7 0 10 -262144 -1 -1 0
1;
#X obj 534 417 + 4;
#X obj 558 345 bng 15 250 50 0 empty empty empty 17 7 0 10 -262144
-1 -1;
#X obj 558 362 tgl 15 0 empty empty empty 17 7 0 10 -262144 -1 -1 0
1;
#X obj 558 417 + 4;
#X obj 486 436 s instA;
#X obj 510 455 s instB;
#X obj 534 436 s instC;
#X obj 558 455 s instD;
#X msg 486 474 52 \$1;
#X obj 486 493 noteout 5;
#X obj 437 107 < 5;
#X obj 404 126 spigot;
#X obj 395 68 t f f f;
#X obj 486 379 t f f;
#X obj 510 398 t f f;
#X obj 534 379 t f f;
#X obj 558 398 t f f;
#X msg 511 513 52 \$1;
#X obj 511 532 noteout 6;
#X msg 546 474 52 \$1;
#X msg 571 513 52 \$1;
#X obj 546 493 noteout 7;
#X obj 571 532 noteout 8;
#X obj 486 259 r clear;
#X obj 486 278 t b b b b;
#X msg 486 297 0;
#X msg 503 316 0;
#X msg 520 297 0;
#X msg 537 316 0;
#X floatatom 1002 260 5 0 0 0 - - -;
#X obj 1002 184 t b f;
#X obj 1002 222 -;
#X obj 1002 165 * 4;
#X msg 1002 203 550;
#X obj 1002 108 ctlin 15 1;
#X obj 1002 127 / 127;
#X obj 1038 184 t f f;
#X obj 1002 146 * 127;
#X obj 1002 51 r randAll;
#X obj 935 51 notein 1;
#X obj 935 70 spigot;
#X obj 935 127 spigot;
#X obj 935 89 t f f;
#X obj 954 108 == 99;
#X obj 935 146 bng 15 250 50 0 empty empty empty 17 7 0 10 -262144
-1 -1;
#X obj 935 163 tapTempo;
#X obj 856 51 notein 1;
#X obj 856 70 spigot;
#X obj 856 127 spigot;
#X obj 856 89 t f f;
#X obj 875 108 == 100;
#X obj 856 189 f;
#X obj 856 146 bng 15 250 50 0 empty empty empty 17 7 0 10 -262144
-1 -1;
#X obj 769 51 notein 1;
#X obj 769 70 spigot;
#X obj 769 127 spigot;
#X obj 769 89 t f f;
#X obj 769 189 f;
#X obj 769 146 bng 15 250 50 0 empty empty empty 17 7 0 10 -262144
-1 -1;
#X obj 788 108 == 101;
#X obj 769 208 + 5;
#X obj 856 208 - 5;
#X obj 1002 241 max 5;
#X obj 1038 203 *;
#X obj 1002 70 random 95;
#X obj 1002 89 + 32;
#X obj 1038 222 t b f;
#X msg 1038 241 1;
#X obj 1037 260 -;
#X obj 1038 127 t b f;
#X msg 1038 146 1;
#X obj 1038 165 -;
#X obj 1002 279 s tempoMs;
#X obj 784 170 r tempoMs;
#X obj 871 170 r tempoMs;
#X obj 690 274 == 127;
#X obj 645 312 spigot;
#X obj 645 255 == 98;
#X obj 645 274 t b f;
#X obj 645 293 spigot;
#X obj 690 255 t f f;
#X obj 645 236 notein 1;
#X obj 702 293 == 0;
#X obj 687 312 spigot;
#X msg 645 331 1;
#X msg 687 331 0;
#X obj 645 350 s shPr;
#X obj 682 146 loadbang;
#X obj 486 183 spigot;
#X obj 486 126 spigot;
#X obj 486 88 t f f;
#X obj 486 202 bng 15 250 50 0 empty empty empty 17 7 0 10 -262144
-1 -1;
#X obj 522 88 t f f;
#X obj 486 145 t f f;
#X obj 505 107 == 52;
#X obj 486 49 notein;
#X obj 486 219 f;
#X obj 528 145 noteout;
#X obj 561 107 < 5;
#X obj 528 126 spigot;
#X obj 519 68 t f f f;
#X obj 486 238 route 5 6 7 8;
#X obj 362 238 route 1 2 3 4;
#X obj 195 12 r chaos;
#X obj 769 371 notein 1;
#X obj 769 447 spigot;
#X obj 788 428 == 91;
#X obj 823 371 notein 1;
#X obj 823 447 spigot;
#X obj 842 428 == 92;
#X obj 888 371 notein;
#X floatatom 924 409 5 0 0 0 - - -;
#X obj 823 409 t f f;
#X obj 769 409 t f f;
#X obj 888 447 spigot;
#X obj 888 409 t f f;
#X obj 888 483 f;
#X obj 888 466 bng 15 250 50 0 empty empty empty 17 7 0 10 -262144
-1 -1;
#X floatatom 888 521 5 0 0 0 - - -;
#X obj 888 502 - 2;
#X obj 769 390 spigot;
#X obj 823 390 spigot;
#X obj 888 390 spigot;
#X obj 769 504 f;
#X msg 769 466 1;
#X msg 823 466 0;
#X obj 769 485 t b f;
#X obj 894 428 == 57;
#X obj 769 523 s playSeq;
#X obj 840 597 s triggerBeat;
#X obj 840 578 t f b;
#X obj 66 498 notein 1;
#X obj 66 517 - 87;
#X obj 66 555 route 0 1 2 3;
#X obj 66 596 tgl 15 0 empty empty empty 17 7 0 10 -262144 -1 -1 0
1;
#X obj 66 536 spigot;
#X obj 84 596 tgl 15 0 empty empty empty 17 7 0 10 -262144 -1 -1 0
1;
#X obj 103 596 tgl 15 0 empty empty empty 17 7 0 10 -262144 -1 -1 0
1;
#X obj 122 596 tgl 15 0 empty empty empty 17 7 0 10 -262144 -1 -1 0
1;
#X obj 38 707 noteout 1;
#X msg 38 649 87;
#X obj 38 630 t b f f;
#X obj 86 630 t b f f;
#X obj 134 630 t b f f;
#X obj 182 630 t b f f;
#X obj 140 691 s pianoA;
#X obj 152 710 s pianoB;
#X obj 194 691 s pianoC;
#X obj 206 710 s pianoD;
#X msg 86 649 88;
#X msg 134 649 89;
#X msg 182 649 90;
#X obj 568 596 notein;
#X floatatom 568 615 5 0 0 0 - - -;
#X floatatom 584 633 5 0 0 0 - - -;
#X floatatom 602 615 5 0 0 0 - - -;
#X obj 284 333 s randParams;
#X obj 311 352 s randSeq;
#X obj 443 569 notein 1;
#X obj 470 607 == 98;
#X obj 443 626 spigot;
#X obj 443 588 t b f;
#X obj 443 607 f;
#X obj 443 645 s shift;
#X obj 251 238 r shift;
#X obj 251 257 + 1;
#X obj 251 276 gate 2;
#X obj 284 314 t b b;
#X obj 491 626 loadbang;
#X msg 491 645 0;
#X obj 840 521 r shift;
#X obj 840 540 + 1;
#X obj 840 559 gate 2;
#X obj 873 616 + 2;
#X obj 873 635 s seqLength;
#X obj 924 597 loadbang;
#X msg 924 616 8;
#X obj 230 611 loadbang;
#X msg 230 630 0;
#X obj 230 649 t f f f f;
#X floatatom 910 251 5 0 0 0 - - -;
#X obj 910 307 /;
#X obj 910 269 t b f;
#X msg 910 288 30000;
#X obj 562 261 loadbang;
#X connect 0 0 1 0;
#X connect 0 1 1 1;
#X connect 1 0 3 0;
#X connect 2 0 35 0;
#X connect 3 0 2 0;
#X connect 3 1 4 0;
#X connect 4 0 2 1;
#X connect 6 0 7 0;
#X connect 6 1 7 1;
#X connect 7 0 9 0;
#X connect 8 0 34 0;
#X connect 9 0 8 0;
#X connect 9 1 11 0;
#X connect 11 0 8 1;
#X connect 12 0 5 0;
#X connect 13 0 10 0;
#X connect 14 0 15 0;
#X connect 14 1 15 1;
#X connect 15 0 17 0;
#X connect 16 0 28 0;
#X connect 17 0 16 0;
#X connect 17 1 24 0;
#X connect 19 0 20 0;
#X connect 19 1 20 1;
#X connect 20 0 22 0;
#X connect 21 0 29 0;
#X connect 22 0 21 0;
#X connect 22 1 25 0;
#X connect 24 0 16 1;
#X connect 25 0 21 1;
#X connect 27 0 26 0;
#X connect 28 0 31 0;
#X connect 29 0 32 0;
#X connect 31 0 30 0;
#X connect 31 1 18 0;
#X connect 31 2 27 0;
#X connect 32 0 30 0;
#X connect 32 1 23 0;
#X connect 32 2 27 0;
#X connect 34 0 33 0;
#X connect 34 1 13 0;
#X connect 35 0 33 0;
#X connect 35 1 12 0;
#X connect 36 0 39 0;
#X connect 36 1 43 0;
#X connect 37 0 69 0;
#X connect 38 0 44 0;
#X connect 39 0 38 0;
#X connect 39 1 41 0;
#X connect 41 0 38 1;
#X connect 43 0 37 1;
#X connect 43 1 42 1;
#X connect 44 0 37 0;
#X connect 44 1 42 0;
#X connect 45 0 48 0;
#X connect 46 0 50 0;
#X connect 47 0 46 0;
#X connect 47 1 51 0;
#X connect 48 0 53 0;
#X connect 49 0 45 1;
#X connect 49 1 54 1;
#X connect 50 0 45 0;
#X connect 50 1 93 0;
#X connect 51 0 46 1;
#X connect 52 0 47 0;
#X connect 52 1 49 0;
#X connect 52 2 94 0;
#X connect 53 0 184 0;
#X connect 59 0 60 0;
#X connect 59 1 60 1;
#X connect 60 0 62 0;
#X connect 61 0 66 0;
#X connect 62 0 61 0;
#X connect 62 1 63 0;
#X connect 63 0 61 1;
#X connect 66 0 65 0;
#X connect 66 1 64 0;
#X connect 68 0 67 0;
#X connect 68 1 248 1;
#X connect 69 0 68 0;
#X connect 70 0 55 0;
#X connect 71 0 56 0;
#X connect 72 0 57 0;
#X connect 73 0 58 0;
#X connect 74 0 75 0;
#X connect 75 0 95 0;
#X connect 76 0 86 0;
#X connect 77 0 78 0;
#X connect 78 0 96 0;
#X connect 79 0 87 0;
#X connect 80 0 81 0;
#X connect 81 0 97 0;
#X connect 82 0 88 0;
#X connect 83 0 84 0;
#X connect 84 0 98 0;
#X connect 85 0 89 0;
#X connect 90 0 91 0;
#X connect 92 0 93 1;
#X connect 93 0 54 0;
#X connect 94 0 54 2;
#X connect 94 1 92 0;
#X connect 94 2 53 1;
#X connect 95 0 76 0;
#X connect 95 1 90 0;
#X connect 96 0 79 0;
#X connect 96 1 99 0;
#X connect 97 0 82 0;
#X connect 97 1 101 0;
#X connect 98 0 85 0;
#X connect 98 1 102 0;
#X connect 99 0 100 0;
#X connect 101 0 103 0;
#X connect 102 0 104 0;
#X connect 105 0 106 0;
#X connect 106 0 107 0;
#X connect 106 1 108 0;
#X connect 106 2 109 0;
#X connect 106 3 110 0;
#X connect 107 0 75 0;
#X connect 108 0 78 0;
#X connect 109 0 81 0;
#X connect 110 0 84 0;
#X connect 111 0 154 0;
#X connect 112 0 115 0;
#X connect 112 1 113 1;
#X connect 113 0 144 0;
#X connect 114 0 112 0;
#X connect 115 0 113 0;
#X connect 116 0 117 0;
#X connect 117 0 151 0;
#X connect 118 0 145 0;
#X connect 118 1 145 1;
#X connect 119 0 114 0;
#X connect 120 0 146 0;
#X connect 121 0 122 0;
#X connect 121 1 122 1;
#X connect 122 0 124 0;
#X connect 123 0 126 0;
#X connect 124 0 123 0;
#X connect 124 1 125 0;
#X connect 125 0 123 1;
#X connect 126 0 127 0;
#X connect 127 1 111 0;
#X connect 128 0 129 0;
#X connect 128 1 129 1;
#X connect 129 0 131 0;
#X connect 130 0 134 0;
#X connect 131 0 130 0;
#X connect 131 1 132 0;
#X connect 132 0 130 1;
#X connect 133 0 143 0;
#X connect 134 0 133 0;
#X connect 135 0 136 0;
#X connect 135 1 136 1;
#X connect 136 0 138 0;
#X connect 137 0 140 0;
#X connect 138 0 137 0;
#X connect 138 1 141 0;
#X connect 139 0 142 0;
#X connect 140 0 139 0;
#X connect 141 0 137 1;
#X connect 142 0 144 0;
#X connect 143 0 144 0;
#X connect 144 0 111 0;
#X connect 145 0 148 0;
#X connect 146 0 147 0;
#X connect 147 0 117 0;
#X connect 148 0 149 0;
#X connect 148 1 150 1;
#X connect 149 0 150 0;
#X connect 150 0 119 0;
#X connect 151 0 152 0;
#X connect 151 1 153 1;
#X connect 152 0 153 0;
#X connect 153 0 118 0;
#X connect 155 0 139 1;
#X connect 156 0 133 1;
#X connect 157 0 158 1;
#X connect 158 0 166 0;
#X connect 159 0 160 0;
#X connect 160 0 161 0;
#X connect 160 1 161 1;
#X connect 161 0 158 0;
#X connect 161 0 165 0;
#X connect 162 0 157 0;
#X connect 162 1 164 0;
#X connect 163 0 159 0;
#X connect 163 1 162 0;
#X connect 164 0 165 1;
#X connect 165 0 167 0;
#X connect 166 0 168 0;
#X connect 167 0 168 0;
#X connect 169 0 66 0;
#X connect 170 0 173 0;
#X connect 171 0 175 0;
#X connect 172 0 171 0;
#X connect 172 1 176 0;
#X connect 173 0 178 0;
#X connect 174 0 170 1;
#X connect 174 1 179 1;
#X connect 175 0 170 0;
#X connect 175 1 181 0;
#X connect 176 0 171 1;
#X connect 177 0 172 0;
#X connect 177 1 174 0;
#X connect 177 2 182 0;
#X connect 178 0 183 0;
#X connect 180 0 181 1;
#X connect 181 0 179 0;
#X connect 182 0 179 2;
#X connect 182 1 180 0;
#X connect 182 2 178 1;
#X connect 183 0 74 0;
#X connect 183 1 77 0;
#X connect 183 2 80 0;
#X connect 183 3 83 0;
#X connect 184 0 70 0;
#X connect 184 1 71 0;
#X connect 184 2 72 0;
#X connect 184 3 73 0;
#X connect 185 0 69 0;
#X connect 186 0 202 0;
#X connect 186 1 202 1;
#X connect 187 0 206 0;
#X connect 188 0 187 1;
#X connect 189 0 203 0;
#X connect 189 1 203 1;
#X connect 190 0 207 0;
#X connect 191 0 190 1;
#X connect 192 0 204 0;
#X connect 192 1 204 1;
#X connect 192 2 193 0;
#X connect 193 0 198 1;
#X connect 194 0 190 0;
#X connect 194 1 191 0;
#X connect 195 0 187 0;
#X connect 195 1 188 0;
#X connect 196 0 199 0;
#X connect 197 0 196 0;
#X connect 197 1 209 0;
#X connect 198 0 201 0;
#X connect 199 0 198 0;
#X connect 200 0 254 1;
#X connect 201 0 200 0;
#X connect 202 0 195 0;
#X connect 203 0 194 0;
#X connect 204 0 197 0;
#X connect 205 0 210 0;
#X connect 206 0 208 0;
#X connect 207 0 208 0;
#X connect 208 0 205 0;
#X connect 208 1 205 1;
#X connect 209 0 196 1;
#X connect 212 0 211 0;
#X connect 212 1 205 0;
#X connect 213 0 214 0;
#X connect 213 1 217 1;
#X connect 214 0 217 0;
#X connect 215 0 216 0;
#X connect 215 1 218 0;
#X connect 215 2 219 0;
#X connect 215 3 220 0;
#X connect 216 0 223 0;
#X connect 217 0 215 0;
#X connect 218 0 224 0;
#X connect 219 0 225 0;
#X connect 220 0 226 0;
#X connect 222 0 221 0;
#X connect 223 0 222 0;
#X connect 223 1 221 1;
#X connect 223 2 227 0;
#X connect 224 0 231 0;
#X connect 224 1 221 1;
#X connect 224 2 228 0;
#X connect 225 0 232 0;
#X connect 225 1 221 1;
#X connect 225 2 229 0;
#X connect 226 0 233 0;
#X connect 226 1 221 1;
#X connect 226 2 230 0;
#X connect 231 0 221 0;
#X connect 232 0 221 0;
#X connect 233 0 221 0;
#X connect 234 0 235 0;
#X connect 234 1 236 0;
#X connect 234 2 237 0;
#X connect 240 0 243 0;
#X connect 240 1 244 1;
#X connect 241 0 242 1;
#X connect 242 0 245 0;
#X connect 243 0 244 0;
#X connect 243 1 241 0;
#X connect 244 0 242 0;
#X connect 246 0 247 0;
#X connect 247 0 248 0;
#X connect 248 0 40 0;
#X connect 248 1 249 0;
#X connect 249 0 238 0;
#X connect 249 1 239 0;
#X connect 250 0 251 0;
#X connect 251 0 245 0;
#X connect 252 0 253 0;
#X connect 253 0 254 0;
#X connect 254 0 212 0;
#X connect 254 1 255 0;
#X connect 255 0 256 0;
#X connect 257 0 258 0;
#X connect 258 0 256 0;
#X connect 259 0 260 0;
#X connect 260 0 261 0;
#X connect 261 0 227 0;
#X connect 261 1 229 0;
#X connect 261 2 228 0;
#X connect 261 3 230 0;
#X connect 262 0 264 0;
#X connect 263 0 154 0;
#X connect 264 0 265 0;
#X connect 264 1 263 1;
#X connect 265 0 263 0;
#X connect 266 0 106 0;
#X coords 0 0 1 1 20 35 0;
