#N canvas 274 67 478 579 10;
#X obj 174 120 r currentBeat;
#X obj 174 331 makenote;
#X msg 213 302 100;
#X msg 193 279 1;
#X obj 174 251 t f b b;
#X obj 174 470 noteout;
#X msg 220 398 17;
#X obj 193 374 t f b;
#X obj 174 216 spigot;
#X obj 207 195 tgl 15 0 empty empty empty 17 7 0 10 -262144 -1 -1 0
1;
#X floatatom 247 159 5 0 0 0 - - -;
#X obj 174 159 delay 1000;
#X obj 42 71 notein;
#X obj 75 108 == 17;
#X obj 42 144 spigot;
#X obj 42 244 s currentBeat;
#X obj 42 214 spigot;
#X obj 75 193 tgl 15 0 empty empty empty 17 7 0 10 -262144 -1 -1 0
1;
#X connect 0 0 11 0;
#X connect 1 0 5 0;
#X connect 1 1 7 0;
#X connect 2 0 1 2;
#X connect 3 0 1 1;
#X connect 4 0 1 0;
#X connect 4 1 3 0;
#X connect 4 2 2 0;
#X connect 6 0 5 2;
#X connect 7 0 5 1;
#X connect 7 1 6 0;
#X connect 8 0 4 0;
#X connect 9 0 8 1;
#X connect 10 0 11 1;
#X connect 11 0 8 0;
#X connect 12 0 14 0;
#X connect 12 2 13 0;
#X connect 13 0 14 1;
#X connect 14 0 16 0;
#X connect 16 0 15 0;
#X connect 17 0 16 1;
#X coords 0 0 1 1 20 35 0;
