#N canvas 552 192 523 409 10;
#X obj 257 17 inlet;
#X obj 107 17 inlet;
#X obj 165 -2 loadbang;
#X obj 165 131 +;
#X obj 107 36 frToMs;
#X obj 165 17 t b b;
#X msg 192 36 10;
#X obj 165 74 metro;
#X floatatom 165 150 15 0 0 0 - - -;
#X obj 165 93 f;
#X obj 165 112 /;
#X obj 165 225 vline~;
#X obj 192 55 t f f f;
#X obj 165 187 pack f f;
#X msg 165 206 \$1 \$2;
#X obj 165 244 outlet~;
#X msg 276 74 0;
#X obj 213 244 outlet;
#X obj 165 168 t f f;
#X obj 257 55 t f b f;
#X connect 0 0 19 0;
#X connect 1 0 4 0;
#X connect 2 0 5 0;
#X connect 3 0 8 0;
#X connect 4 0 10 1;
#X connect 5 0 7 0;
#X connect 5 1 6 0;
#X connect 6 0 12 0;
#X connect 7 0 9 0;
#X connect 8 0 3 1;
#X connect 8 0 18 0;
#X connect 9 0 10 0;
#X connect 10 0 3 0;
#X connect 11 0 15 0;
#X connect 12 0 7 1;
#X connect 12 1 9 1;
#X connect 12 2 13 1;
#X connect 13 0 14 0;
#X connect 14 0 11 0;
#X connect 16 0 3 1;
#X connect 18 0 13 0;
#X connect 18 1 17 0;
#X connect 19 0 3 0;
#X connect 19 1 16 0;
#X connect 19 2 11 0;
#X coords 0 0 1 1 20 35 0;
