#N canvas 557 235 950 562 10;
#X obj 102 344 sendOSC;
#X obj 276 238 loadbang;
#X msg 276 308 connect 127.0.0.1 12000;
#X msg 276 327 disconnect;
#X msg 397 241 send /record \$1;
#X obj 397 222 min 1;
#X obj 102 142 r instAL;
#X obj 160 142 r instBL;
#X obj 218 142 r instCL;
#X obj 276 142 r instDL;
#X msg 102 161 send /loadV 0 \$1;
#X msg 160 180 send /loadV 1 \$1;
#X msg 218 161 send /loadV 2 \$1;
#X msg 276 180 send /loadV 3 \$1;
#X msg 276 276 send /handshake;
#X obj 276 257 t b b;
#X obj 388 -40 notein 1;
#X obj 388 36 spigot;
#X obj 388 -2 t f f;
#X obj 407 17 == 93;
#X obj 397 203 f;
#X obj 397 186 bng 15 250 50 0 empty empty empty 17 7 0 10 -262144
-1 -1;
#X msg 102 220 send /position \$2 \$1;
#X obj 102 201 r positionV;
#X obj 541 138 s totalNbSamples;
#X floatatom 541 120 5 0 0 0 - - -;
#X obj 541 82 dumpOSC 12001;
#X obj 446 16 r recOn;
#X obj 446 36 t b f;
#X obj 631 410 s recOn;
#X obj 695 410 s chaos;
#X obj 754 410 s playSeq;
#X floatatom 818 202 5 0 0 0 - - -;
#X obj 541 101 OSCroute /nbVids /handshake /recOn /chaos /playSeq;
#X obj 521 18 / 127;
#X obj 521 37 invert;
#X obj 521 -40 spigot;
#X obj 554 -59 == 64;
#X obj 521 -78 ctlin;
#X obj 521 -1 spigot;
#X obj 554 -20 == 1;
#X text 433 -14 < TODO weird;
#X connect 1 0 15 0;
#X connect 2 0 0 0;
#X connect 3 0 0 0;
#X connect 4 0 0 0;
#X connect 5 0 4 0;
#X connect 6 0 10 0;
#X connect 7 0 11 0;
#X connect 8 0 12 0;
#X connect 9 0 13 0;
#X connect 10 0 0 0;
#X connect 11 0 0 0;
#X connect 12 0 0 0;
#X connect 13 0 0 0;
#X connect 14 0 0 0;
#X connect 15 0 14 0;
#X connect 15 1 2 0;
#X connect 16 0 18 0;
#X connect 16 1 20 1;
#X connect 17 0 21 0;
#X connect 18 0 17 0;
#X connect 18 1 19 0;
#X connect 19 0 17 1;
#X connect 20 0 5 0;
#X connect 21 0 20 0;
#X connect 22 0 0 0;
#X connect 23 0 22 0;
#X connect 25 0 24 0;
#X connect 26 0 33 0;
#X connect 27 0 28 0;
#X connect 28 0 21 0;
#X connect 28 1 20 1;
#X connect 33 0 25 0;
#X connect 33 2 29 0;
#X connect 33 3 30 0;
#X connect 33 4 31 0;
#X connect 33 4 32 0;
#X connect 34 0 35 0;
#X connect 35 0 28 0;
#X connect 36 0 39 0;
#X connect 37 0 36 1;
#X connect 38 0 36 0;
#X connect 38 1 37 0;
#X connect 38 2 40 0;
#X connect 39 0 34 0;
#X connect 40 0 39 1;
#X coords 0 0 1 1 20 35 0;
