#N canvas 238 43 636 744 10;
#X obj 150 0 notein;
#X obj 169 38 <= 50;
#X obj 189 57 >= 48;
#X obj 150 19 t f f f;
#X obj 150 76 spigot;
#X obj 150 95 spigot;
#X obj 183 114 * 3;
#X obj 150 133 +;
#X obj 150 114 - 51;
#X floatatom 150 152 5 0 0 0 - - -;
#X floatatom 116 444 5 0 0 0 - - -;
#X floatatom 172 445 5 0 0 0 - - -;
#X floatatom 215 446 5 0 0 0 - - -;
#X obj 150 170 poly 4 0;
#X obj 215 489 == 127;
#X msg 215 546 1;
#X obj 215 576 f;
#X obj 215 508 t b f;
#X obj 215 527 spigot;
#X obj 257 508 t b f;
#X obj 257 527 spigot;
#X obj 257 489 == 0;
#X msg 257 546 2;
#X obj 182 685 spigot;
#X obj 215 666 == 1;
#X obj 215 595 t f f f f;
#X obj 236 685 spigot;
#X obj 290 685 spigot;
#X obj 344 685 spigot;
#X obj 269 666 == 2;
#X obj 323 666 == 3;
#X obj 377 666 == 4;
#X obj 215 634 t f f f f;
#X obj 182 704 s instA;
#X obj 236 704 s instB;
#X obj 290 704 s instC;
#X obj 344 704 s instD;
#X obj 81 606 s pitch;
#X obj 116 462 t b f f;
#X obj 81 587 pack f f;
#X obj 81 568 - 1;
#X obj 43 309 r pianoA;
#X obj 43 364 gate 2;
#X obj 43 345 + 1;
#X obj 43 328 tgl 15 0 empty empty empty 17 7 0 10 -262144 -1 -1 1
1;
#X obj 150 190 route 1 2 3 4;
#X msg 76 383 1;
#X obj 43 252 t f f;
#X obj 43 290 spigot;
#X msg 43 233 1;
#X obj 43 383 + 1;
#X obj 104 364 gate 2;
#X obj 104 345 + 1;
#X obj 104 328 tgl 15 0 empty empty empty 17 7 0 10 -262144 -1 -1 1
1;
#X obj 104 252 t f f;
#X obj 104 290 spigot;
#X obj 104 383 + 1;
#X obj 165 364 gate 2;
#X obj 165 345 + 1;
#X obj 165 328 tgl 15 0 empty empty empty 17 7 0 10 -262144 -1 -1 1
1;
#X obj 165 252 t f f;
#X obj 165 290 spigot;
#X obj 165 383 + 1;
#X obj 226 364 gate 2;
#X obj 226 345 + 1;
#X obj 226 328 tgl 15 0 empty empty empty 17 7 0 10 -262144 -1 -1 0
1;
#X obj 226 252 t f f;
#X obj 226 290 spigot;
#X obj 226 383 + 1;
#X msg 137 383 2;
#X msg 198 383 3;
#X msg 259 383 4;
#X msg 104 233 2;
#X msg 165 233 3;
#X msg 226 233 4;
#X obj 104 309 r pianoB;
#X obj 165 309 r pianoC;
#X obj 226 309 r pianoD;
#X obj 238 271 < 9;
#X obj 55 271 < 9;
#X obj 116 271 < 9;
#X obj 177 271 < 9;
#X connect 0 0 3 0;
#X connect 0 1 13 1;
#X connect 0 2 6 0;
#X connect 1 0 4 1;
#X connect 2 0 5 1;
#X connect 3 0 4 0;
#X connect 3 1 1 0;
#X connect 3 2 2 0;
#X connect 4 0 5 0;
#X connect 5 0 8 0;
#X connect 6 0 7 1;
#X connect 7 0 9 0;
#X connect 8 0 7 0;
#X connect 9 0 13 0;
#X connect 10 0 38 0;
#X connect 11 0 39 1;
#X connect 12 0 14 0;
#X connect 12 0 21 0;
#X connect 13 0 45 0;
#X connect 13 1 11 0;
#X connect 13 2 12 0;
#X connect 14 0 17 0;
#X connect 15 0 16 1;
#X connect 16 0 25 0;
#X connect 17 0 18 0;
#X connect 17 1 18 1;
#X connect 18 0 15 0;
#X connect 19 0 20 0;
#X connect 19 1 20 1;
#X connect 20 0 22 0;
#X connect 21 0 19 0;
#X connect 22 0 16 1;
#X connect 23 0 33 0;
#X connect 24 0 23 1;
#X connect 25 0 23 0;
#X connect 25 1 26 0;
#X connect 25 2 27 0;
#X connect 25 3 28 0;
#X connect 26 0 34 0;
#X connect 27 0 35 0;
#X connect 28 0 36 0;
#X connect 29 0 26 1;
#X connect 30 0 27 1;
#X connect 31 0 28 1;
#X connect 32 0 24 0;
#X connect 32 1 29 0;
#X connect 32 2 30 0;
#X connect 32 3 31 0;
#X connect 38 0 16 0;
#X connect 38 1 32 0;
#X connect 38 2 40 0;
#X connect 39 0 37 0;
#X connect 40 0 39 0;
#X connect 41 0 44 0;
#X connect 42 0 50 0;
#X connect 42 1 46 0;
#X connect 43 0 42 0;
#X connect 44 0 43 0;
#X connect 45 0 49 0;
#X connect 45 1 72 0;
#X connect 45 2 73 0;
#X connect 45 3 74 0;
#X connect 46 0 10 0;
#X connect 47 0 48 0;
#X connect 47 1 79 0;
#X connect 48 0 42 1;
#X connect 49 0 47 0;
#X connect 50 0 54 0;
#X connect 51 0 56 0;
#X connect 51 1 69 0;
#X connect 52 0 51 0;
#X connect 53 0 52 0;
#X connect 54 0 55 0;
#X connect 54 1 80 0;
#X connect 55 0 51 1;
#X connect 56 0 60 0;
#X connect 57 0 62 0;
#X connect 57 1 70 0;
#X connect 58 0 57 0;
#X connect 59 0 58 0;
#X connect 60 0 61 0;
#X connect 60 1 81 0;
#X connect 61 0 57 1;
#X connect 62 0 66 0;
#X connect 63 0 68 0;
#X connect 63 1 71 0;
#X connect 64 0 63 0;
#X connect 65 0 64 0;
#X connect 66 0 67 0;
#X connect 66 1 78 0;
#X connect 67 0 63 1;
#X connect 68 0 47 0;
#X connect 69 0 10 0;
#X connect 70 0 10 0;
#X connect 71 0 10 0;
#X connect 72 0 54 0;
#X connect 73 0 60 0;
#X connect 74 0 66 0;
#X connect 75 0 53 0;
#X connect 76 0 59 0;
#X connect 77 0 65 0;
#X connect 78 0 67 1;
#X connect 79 0 48 1;
#X connect 80 0 55 1;
#X connect 81 0 61 1;
#X coords 0 0 1 1 20 35 0;
