#N canvas 33 64 1367 723 10;
#X obj 272 681 outlet~;
#X obj 320 681 outlet~;
#X obj 132 46 inlet;
#X obj 824 463 \$0;
#N canvas 0 0 450 300 (subpatch) 0;
#X array \$0-right 81920 float 2;
#X coords 0 1 81920 -1 200 140 1;
#X restore 868 4 graph;
#N canvas 0 0 450 300 (subpatch) 0;
#X array \$0-left 81920 float 2;
#X coords 0 1 81920 -1 200 140 1;
#X restore 868 162 graph;
#X obj 824 592 soundfiler;
#X msg 824 573 read -resize \$2 \$1-left \$1-right;
#X obj 824 428 t b b;
#X obj 843 649 s \$0-sLength;
#X obj 824 524 pack f s;
#X obj 869 505 makefilename data/vids/%d/00.wav;
#X obj 824 392 r \$0-loadNext;
#X obj 181 84 s \$0-loadNext;
#X obj 148 103 s \$0-play;
#X obj 266 146 r \$0-play;
#X obj 245 -36 loadbang;
#X msg 245 -17 44100;
#X obj 245 2 s \$0-fEchant;
#X obj 204 513 tabread4~ \$0-right;
#X obj 319 513 tabread4~ \$0-left;
#X obj 272 624 *~;
#X obj 320 624 *~;
#X obj 250 477 *~;
#X obj 315 460 r \$0-sLength;
#X obj 281 184 r \$0-sLength;
#X obj 281 203 sToFr;
#X obj 266 222 f;
#X msg 293 289 0;
#X msg 869 411 1;
#X obj 869 430 +;
#X obj 869 449 %;
#X floatatom 869 468 5 0 0 0 - - -;
#X obj 264 46 inlet;
#X obj 264 65 s \$0-id;
#X obj 458 -105 ctlin;
#X obj 486 -86 r \$0-id;
#X obj 471 -48 ==;
#X obj 500 -23 == 1;
#X obj 458 -25 spigot;
#X obj 458 -6 spigot;
#X floatatom 458 278 5 0 0 0 - - -;
#X obj 404 230 loadbang;
#X msg 404 249 1;
#X obj 458 88 / 127;
#X obj 458 259 * 2;
#X obj 458 183 *;
#X obj 458 164 t f f;
#X obj 95 514 ctlin;
#X obj 146 476 r \$0-id;
#X obj 131 514 ==;
#X obj 137 533 == 1;
#X obj 95 533 spigot;
#X obj 95 552 spigot;
#X floatatom 95 590 5 0 0 0 - - -;
#X obj 137 552 loadbang;
#X obj 95 571 / 127;
#X obj 95 608 lop~ 5;
#X obj 146 495 + 52;
#X msg 137 571 0.5;
#X obj 95 627 *~ -1;
#X obj 95 646 +~ 1;
#X obj 272 662 *~;
#X obj 320 662 *~;
#X obj 578 -42 r randAll;
#X obj 578 -23 random 127;
#X obj 17 552 r randAll;
#X obj 17 571 random 127;
#X obj 782 321 r randAll;
#X obj 782 392 random;
#X obj 782 340 t b b;
#X obj 871 321 r totalNbSamples;
#X obj 33 609 r \$0-id;
#X obj 33 628 + 52;
#X obj 17 665 ctlout;
#X msg 50 647 1;
#X obj 863 687 outlet;
#X obj 863 668 f;
#X obj 535 457 ctlin;
#X obj 586 419 r \$0-id;
#X obj 571 457 ==;
#X obj 577 476 == 1;
#X obj 535 476 spigot;
#X obj 535 495 spigot;
#X floatatom 535 590 5 0 0 0 - - -;
#X obj 577 495 loadbang;
#X msg 577 514 1;
#X obj 535 514 / 127;
#X obj 535 533 * 2;
#X obj 535 608 lop~ 5;
#X obj 535 571 *;
#X obj 535 552 t f f;
#X obj 613 514 r randAll;
#X obj 629 571 r \$0-id;
#X obj 613 627 ctlout;
#X msg 646 609 1;
#X msg 613 533 63;
#X obj 606 15 random;
#X obj 613 552 t f b f;
#X obj 17 590 t f b f;
#X obj 578 -4 t b b f;
#X msg 578 15 127;
#X obj 578 34 -;
#X obj 330 441 s positionV;
#X obj 330 422 pack f f;
#X obj 378 403 f;
#X obj 393 384 r \$0-id;
#X obj 330 403 t f b f;
#X obj 369 532 < 1;
#X obj 824 611 t b f b;
#X obj 272 643 *~;
#X obj 320 643 *~;
#X obj 85 200 ctlin;
#X obj 136 162 r \$0-id;
#X obj 121 200 ==;
#X obj 127 219 == 1;
#X obj 85 219 spigot;
#X obj 85 238 spigot;
#X floatatom 85 314 5 0 0 0 - - -;
#X obj 127 238 loadbang;
#X obj 15 145 r randAll;
#X obj 15 164 random 127;
#X obj 31 259 r \$0-id;
#X obj 15 316 ctlout;
#X msg 48 297 1;
#X obj 43 202 random;
#X obj 15 240 t f b f;
#X obj 15 183 t b b f;
#X msg 15 202 127;
#X obj 15 221 -;
#X obj 85 351 lop~ 2;
#X obj 136 181 + 20;
#X obj 31 278 + 20;
#X msg 127 257 0;
#X obj 250 405 +~;
#X obj 330 384 +;
#X obj 85 295 *;
#X obj 85 276 t f f;
#X obj 266 316 homePhasor~;
#X obj 486 -67 + 16;
#X obj 629 590 + 48;
#X obj 586 438 + 48;
#X obj 530 -23 r clear;
#X obj -33 204 r clear;
#X msg -33 223 63;
#X obj -31 554 r clear;
#X msg -31 573 63;
#X obj 673 516 r clear;
#X msg 673 535 63;
#X obj 458 107 t b f;
#X msg 458 126 1;
#X obj 458 145 -;
#X obj 458 202 t b f;
#X msg 458 221 1;
#X obj 458 240 -;
#X msg 329 289 1;
#X obj 824 630 s \$0-play;
#X obj 932 411 spigot;
#X obj 208 122 s \$0-loadLast;
#X msg 208 103 0;
#X msg 237 103 1;
#X obj 132 65 route 0 1 2 3 4 5;
#X obj 965 392 r \$0-loadLast;
#X obj 989 411 t f f;
#X obj 989 430 - 1;
#X obj 974 449 f;
#X obj 932 430 t b b;
#X obj 208 46 loadbang;
#X obj 871 340 t b f f;
#X obj 782 359 s \$0-loadNext;
#X obj 869 486 t f f;
#X obj 748 71 r pitch;
#X obj 748 90 unpack f f;
#X obj 772 109 r \$0-id;
#X obj 748 109 ==;
#X obj 748 128 t b f;
#X obj 748 147 spigot;
#X obj 748 166 f;
#X floatatom 748 204 5 0 0 0 - - -;
#X obj 503 258 r clear;
#X msg 503 277 1;
#X obj 165 141 s \$0-off;
#X obj 329 232 r \$0-off;
#X obj 503 239 r \$0-off;
#X obj 458 296 trigBoth;
#X obj 266 241 trigBoth;
#X obj 266 260 *;
#X obj 503 220 loadbang;
#X obj 748 222 / 12;
#X obj 748 185 + 0;
#X obj 458 315 *;
#X obj 266 165 t b b;
#X obj 748 279 pow;
#X msg 748 260 2;
#X obj 748 241 t b f;
#X msg 530 -4 37;
#X obj 85 257 / 128;
#X obj 15 126 r randParams;
#X obj 17 533 r randParams;
#X obj 631 495 r randParams;
#X obj 578 -61 r randParams;
#X obj 369 608 vline~;
#X obj 330 365 trigBoth;
#X obj 85 332 t f f;
#X obj 369 570 select 1;
#X obj 356 289 s \$0-fadeout;
#X obj 329 251 t b b;
#X obj 423 570 r \$0-fadeout;
#X msg 369 589 1 10;
#X msg 414 589 0 10;
#X obj 369 551 change;
#X obj 329 270 delay 10;
#X obj 391 107 notein 1;
#X obj 406 126 r \$0-id;
#X obj 406 145 + 58;
#X obj 391 164 ==;
#X obj 391 183 t b f;
#X obj 391 202 spigot;
#X obj 791 548 gate 2;
#X msg 1029 573 read -resize \$2 \$1-left;
#X msg 1177 573 read -resize \$2 \$1-right;
#X msg 760 515 2;
#X obj 760 496 loadbang;
#X obj 621 113 r \$0-id;
#X obj 605 170 ctlout;
#X msg 638 151 1;
#X obj 621 132 + 16;
#X obj 605 151 i;
#X obj 605 94 t f b;
#X obj 578 53 t f f;
#X connect 2 0 161 0;
#X connect 3 0 10 0;
#X connect 6 0 109 0;
#X connect 7 0 6 0;
#X connect 8 0 3 0;
#X connect 8 1 29 0;
#X connect 10 0 218 1;
#X connect 11 0 10 1;
#X connect 12 0 8 0;
#X connect 15 0 191 0;
#X connect 16 0 17 0;
#X connect 17 0 18 0;
#X connect 19 0 21 0;
#X connect 20 0 22 0;
#X connect 21 0 110 0;
#X connect 22 0 111 0;
#X connect 23 0 19 0;
#X connect 23 0 20 0;
#X connect 24 0 23 1;
#X connect 25 0 26 0;
#X connect 26 0 27 1;
#X connect 27 0 185 0;
#X connect 28 0 138 1;
#X connect 29 0 30 0;
#X connect 30 0 31 0;
#X connect 31 0 30 1;
#X connect 31 0 32 0;
#X connect 32 0 170 0;
#X connect 33 0 34 0;
#X connect 35 0 39 0;
#X connect 35 1 37 0;
#X connect 35 2 38 0;
#X connect 36 0 139 0;
#X connect 37 0 39 1;
#X connect 38 0 40 1;
#X connect 39 0 40 0;
#X connect 40 0 44 0;
#X connect 41 0 184 0;
#X connect 42 0 43 0;
#X connect 43 0 41 0;
#X connect 44 0 149 0;
#X connect 45 0 41 0;
#X connect 46 0 152 0;
#X connect 47 0 46 0;
#X connect 47 1 46 1;
#X connect 48 0 52 0;
#X connect 48 1 50 0;
#X connect 48 2 51 0;
#X connect 49 0 58 0;
#X connect 50 0 52 1;
#X connect 51 0 53 1;
#X connect 52 0 53 0;
#X connect 53 0 56 0;
#X connect 54 0 57 0;
#X connect 55 0 59 0;
#X connect 56 0 54 0;
#X connect 57 0 60 0;
#X connect 57 0 63 1;
#X connect 58 0 50 1;
#X connect 59 0 54 0;
#X connect 60 0 61 0;
#X connect 61 0 62 1;
#X connect 62 0 0 0;
#X connect 63 0 1 0;
#X connect 64 0 65 0;
#X connect 65 0 100 0;
#X connect 66 0 67 0;
#X connect 67 0 99 0;
#X connect 68 0 70 0;
#X connect 69 0 31 0;
#X connect 70 0 169 0;
#X connect 70 1 69 0;
#X connect 71 0 168 0;
#X connect 72 0 73 0;
#X connect 73 0 74 1;
#X connect 75 0 74 2;
#X connect 77 0 76 0;
#X connect 78 0 82 0;
#X connect 78 1 80 0;
#X connect 78 2 81 0;
#X connect 79 0 141 0;
#X connect 80 0 82 1;
#X connect 81 0 83 1;
#X connect 82 0 83 0;
#X connect 83 0 87 0;
#X connect 84 0 89 0;
#X connect 85 0 86 0;
#X connect 86 0 84 0;
#X connect 87 0 88 0;
#X connect 88 0 91 0;
#X connect 89 0 110 1;
#X connect 89 0 111 1;
#X connect 90 0 84 0;
#X connect 91 0 90 0;
#X connect 91 1 90 1;
#X connect 92 0 96 0;
#X connect 93 0 140 0;
#X connect 95 0 94 2;
#X connect 96 0 98 0;
#X connect 97 0 102 1;
#X connect 98 0 94 0;
#X connect 98 1 95 0;
#X connect 98 2 87 0;
#X connect 99 0 74 0;
#X connect 99 1 75 0;
#X connect 99 2 56 0;
#X connect 100 0 101 0;
#X connect 100 1 97 0;
#X connect 100 2 97 1;
#X connect 101 0 102 0;
#X connect 102 0 229 0;
#X connect 104 0 103 0;
#X connect 105 0 104 1;
#X connect 106 0 105 1;
#X connect 107 0 104 0;
#X connect 107 1 105 0;
#X connect 107 2 108 0;
#X connect 108 0 210 0;
#X connect 109 0 156 0;
#X connect 109 1 9 0;
#X connect 109 2 77 0;
#X connect 110 0 62 0;
#X connect 111 0 63 0;
#X connect 112 0 116 0;
#X connect 112 1 114 0;
#X connect 112 2 115 0;
#X connect 113 0 131 0;
#X connect 114 0 116 1;
#X connect 115 0 117 1;
#X connect 116 0 117 0;
#X connect 117 0 196 0;
#X connect 118 0 203 0;
#X connect 119 0 133 0;
#X connect 120 0 121 0;
#X connect 121 0 127 0;
#X connect 122 0 132 0;
#X connect 124 0 123 2;
#X connect 125 0 129 1;
#X connect 126 0 123 0;
#X connect 126 1 124 0;
#X connect 126 2 196 0;
#X connect 127 0 128 0;
#X connect 127 1 125 0;
#X connect 127 2 125 1;
#X connect 128 0 129 0;
#X connect 129 0 126 0;
#X connect 130 0 134 0;
#X connect 131 0 114 1;
#X connect 132 0 123 1;
#X connect 133 0 118 0;
#X connect 134 0 23 0;
#X connect 135 0 107 0;
#X connect 136 0 118 0;
#X connect 137 0 136 0;
#X connect 137 1 136 1;
#X connect 138 0 134 1;
#X connect 138 1 202 1;
#X connect 139 0 37 1;
#X connect 140 0 94 1;
#X connect 141 0 80 1;
#X connect 142 0 195 0;
#X connect 143 0 144 0;
#X connect 144 0 126 0;
#X connect 145 0 146 0;
#X connect 146 0 99 0;
#X connect 147 0 148 0;
#X connect 148 0 98 0;
#X connect 149 0 150 0;
#X connect 149 1 151 1;
#X connect 150 0 151 0;
#X connect 151 0 47 0;
#X connect 152 0 153 0;
#X connect 152 1 154 1;
#X connect 153 0 154 0;
#X connect 154 0 45 0;
#X connect 155 0 138 1;
#X connect 157 0 166 0;
#X connect 159 0 158 0;
#X connect 160 0 158 0;
#X connect 161 1 14 0;
#X connect 161 2 181 0;
#X connect 161 3 13 0;
#X connect 161 4 159 0;
#X connect 161 5 160 0;
#X connect 162 0 157 1;
#X connect 163 0 164 0;
#X connect 163 1 31 1;
#X connect 164 0 165 1;
#X connect 165 0 32 0;
#X connect 166 0 3 0;
#X connect 166 1 165 0;
#X connect 167 0 159 0;
#X connect 168 0 157 0;
#X connect 168 1 69 1;
#X connect 168 2 163 0;
#X connect 170 0 11 0;
#X connect 170 1 77 1;
#X connect 171 0 172 0;
#X connect 172 0 174 0;
#X connect 172 1 177 1;
#X connect 173 0 174 1;
#X connect 174 0 175 0;
#X connect 175 0 176 0;
#X connect 175 1 176 1;
#X connect 176 0 177 0;
#X connect 177 0 189 0;
#X connect 178 0 188 0;
#X connect 179 0 180 0;
#X connect 180 0 184 1;
#X connect 182 0 206 0;
#X connect 183 0 180 0;
#X connect 184 0 190 0;
#X connect 184 1 190 1;
#X connect 185 0 186 0;
#X connect 185 1 186 1;
#X connect 186 0 138 0;
#X connect 187 0 180 0;
#X connect 188 0 194 0;
#X connect 189 0 178 0;
#X connect 190 0 185 1;
#X connect 191 0 27 0;
#X connect 191 1 28 0;
#X connect 192 0 184 1;
#X connect 193 0 192 0;
#X connect 194 0 193 0;
#X connect 194 1 192 1;
#X connect 195 0 229 0;
#X connect 196 0 137 0;
#X connect 197 0 121 0;
#X connect 198 0 67 0;
#X connect 199 0 96 0;
#X connect 200 0 65 0;
#X connect 201 0 22 1;
#X connect 201 0 21 1;
#X connect 202 0 135 0;
#X connect 202 1 135 1;
#X connect 203 0 130 0;
#X connect 203 1 202 0;
#X connect 204 0 208 0;
#X connect 204 1 209 0;
#X connect 206 0 211 0;
#X connect 206 1 205 0;
#X connect 207 0 209 0;
#X connect 208 0 201 0;
#X connect 209 0 201 0;
#X connect 210 0 204 0;
#X connect 211 0 155 0;
#X connect 212 0 215 0;
#X connect 213 0 214 0;
#X connect 214 0 215 1;
#X connect 215 0 216 0;
#X connect 216 0 217 0;
#X connect 216 1 217 1;
#X connect 217 0 43 0;
#X connect 218 0 7 0;
#X connect 218 1 219 0;
#X connect 218 1 220 0;
#X connect 219 0 6 0;
#X connect 220 0 6 0;
#X connect 221 0 218 0;
#X connect 222 0 221 0;
#X connect 223 0 226 0;
#X connect 225 0 224 2;
#X connect 226 0 224 1;
#X connect 227 0 224 0;
#X connect 228 0 227 0;
#X connect 228 1 225 0;
#X connect 229 0 44 0;
#X connect 229 1 228 0;
