#N canvas 238 147 659 503 10;
#X msg 409 314 \; pd dsp 1;
#X obj 409 295 loadbang;
#X obj 66 172 spigot;
#X obj 66 267 spigot;
#X obj 66 115 t f f f;
#X obj 66 191 spigot;
#X obj 85 134 >= 82;
#X obj 66 77 notein 1;
#X obj 66 248 - 82;
#X floatatom 66 286 5 0 0 0 - - -;
#X obj 66 229 noteout 1;
#X obj 66 210 t f f;
#X obj 165 71 r instA;
#X obj 267 71 r instB;
#X obj 369 71 r instC;
#X obj 471 71 r instD;
#X obj 334 240 *~;
#X obj 358 240 *~;
#X floatatom 487 224 5 0 0 0 - - -;
#X obj 487 186 ctlin 14 1;
#X obj 66 304 route 0 1 2 3;
#X obj 85 153 <= 85;
#X obj 334 289 dac~;
#X obj 523 205 loadbang;
#X msg 523 224 0.5;
#X obj 213 71 loadbang;
#X msg 213 90 0;
#X obj 315 71 loadbang;
#X msg 315 90 1;
#X obj 417 71 loadbang;
#X msg 417 90 2;
#X obj 519 71 loadbang;
#X msg 519 90 3;
#X obj 85 96 t f f;
#X obj 240 128 s instAL;
#X obj 342 128 s instBL;
#X obj 444 128 s instCL;
#X obj 546 128 s instDL;
#X obj 487 205 / 63;
#X msg 66 323 3;
#X msg 84 342 3;
#X msg 103 323 3;
#X msg 122 342 3;
#X obj 165 109 samplePlayer~;
#X obj 267 109 samplePlayer~;
#X obj 369 109 samplePlayer~;
#X obj 471 109 samplePlayer~;
#X connect 1 0 0 0;
#X connect 2 0 5 0;
#X connect 3 0 9 0;
#X connect 4 0 2 0;
#X connect 4 1 6 0;
#X connect 4 2 21 0;
#X connect 5 0 11 0;
#X connect 6 0 2 1;
#X connect 7 0 4 0;
#X connect 7 1 33 0;
#X connect 8 0 3 0;
#X connect 9 0 20 0;
#X connect 11 0 8 0;
#X connect 11 1 10 0;
#X connect 12 0 43 0;
#X connect 13 0 44 0;
#X connect 14 0 45 0;
#X connect 15 0 46 0;
#X connect 16 0 22 0;
#X connect 17 0 22 1;
#X connect 18 0 17 1;
#X connect 18 0 16 1;
#X connect 19 0 38 0;
#X connect 20 0 39 0;
#X connect 20 1 40 0;
#X connect 20 2 41 0;
#X connect 20 3 42 0;
#X connect 21 0 5 1;
#X connect 23 0 24 0;
#X connect 24 0 18 0;
#X connect 25 0 26 0;
#X connect 26 0 43 1;
#X connect 27 0 28 0;
#X connect 28 0 44 1;
#X connect 29 0 30 0;
#X connect 30 0 45 1;
#X connect 31 0 32 0;
#X connect 32 0 46 1;
#X connect 33 0 10 1;
#X connect 33 1 3 1;
#X connect 38 0 18 0;
#X connect 39 0 43 0;
#X connect 40 0 44 0;
#X connect 41 0 45 0;
#X connect 42 0 46 0;
#X connect 43 0 16 0;
#X connect 43 1 17 0;
#X connect 43 2 34 0;
#X connect 44 0 16 0;
#X connect 44 1 17 0;
#X connect 44 2 35 0;
#X connect 45 0 16 0;
#X connect 45 1 17 0;
#X connect 45 2 36 0;
#X connect 46 0 16 0;
#X connect 46 1 17 0;
#X connect 46 2 37 0;
#X coords 0 0 1 1 20 35 0;
