#N canvas 241 0 249 367 10;
#X obj -47 125 r shBts;
#X obj -47 148 t f f;
#X obj -78 222 == -1;
#X obj -36 222 == 1;
#X obj -111 254 spigot;
#X obj -69 254 spigot;
#X obj -111 108 t l l;
#X obj -111 83 inlet;
#X obj -111 273 outlet;
#X obj -69 273 outlet;
#X connect 0 0 1 0;
#X connect 1 0 2 0;
#X connect 1 1 3 0;
#X connect 2 0 4 1;
#X connect 3 0 5 1;
#X connect 4 0 8 0;
#X connect 5 0 9 0;
#X connect 6 0 4 0;
#X connect 6 1 5 0;
#X connect 7 0 6 0;
