#N canvas 509 281 674 425 10;
#X floatatom 62 48 5 0 0 0 - - -;
#X floatatom 96 48 5 0 0 0 - - -;
#X obj 62 66 spigot;
#X obj 62 29 notein 1;
#X floatatom 132 48 5 0 0 0 - - -;
#X floatatom 166 48 5 0 0 0 - - -;
#X obj 132 66 spigot;
#X obj 132 29 notein 2;
#X obj 62 364 noteout 1;
#X obj 132 363 noteout 2;
#X floatatom 202 48 5 0 0 0 - - -;
#X floatatom 236 48 5 0 0 0 - - -;
#X obj 202 66 spigot;
#X floatatom 272 48 5 0 0 0 - - -;
#X floatatom 306 48 5 0 0 0 - - -;
#X obj 272 66 spigot;
#X obj 202 29 notein 3;
#X obj 272 29 notein 4;
#X obj 202 363 noteout 3;
#X obj 272 363 noteout 4;
#X floatatom 342 48 5 0 0 0 - - -;
#X floatatom 376 48 5 0 0 0 - - -;
#X obj 342 66 spigot;
#X floatatom 412 48 5 0 0 0 - - -;
#X floatatom 446 48 5 0 0 0 - - -;
#X obj 412 66 spigot;
#X floatatom 482 48 5 0 0 0 - - -;
#X floatatom 516 48 5 0 0 0 - - -;
#X obj 482 66 spigot;
#X floatatom 552 48 5 0 0 0 - - -;
#X floatatom 586 48 5 0 0 0 - - -;
#X obj 552 66 spigot;
#X obj 342 29 notein 5;
#X obj 412 29 notein 6;
#X obj 482 29 notein 7;
#X obj 552 29 notein 8;
#X obj 342 363 noteout 5;
#X obj 412 363 noteout 6;
#X obj 482 363 noteout 7;
#X obj 552 363 noteout 8;
#X obj 482 198 r currentBeat;
#X obj 482 217 route 0 1 2 3 4 5 6 7;
#X floatatom 62 180 5 0 0 0 - - -;
#X obj 81 104 >= 53;
#X obj 62 142 spigot;
#X obj 62 85 t f f f;
#X obj 62 161 spigot;
#X floatatom 132 180 5 0 0 0 - - -;
#X obj 151 104 >= 53;
#X obj 132 142 spigot;
#X obj 132 85 t f f f;
#X obj 132 161 spigot;
#X floatatom 202 180 5 0 0 0 - - -;
#X obj 221 104 >= 53;
#X obj 202 142 spigot;
#X obj 202 85 t f f f;
#X obj 202 161 spigot;
#X floatatom 272 180 5 0 0 0 - - -;
#X obj 291 104 >= 53;
#X obj 272 142 spigot;
#X obj 272 85 t f f f;
#X obj 272 161 spigot;
#X floatatom 342 180 5 0 0 0 - - -;
#X obj 361 104 >= 53;
#X obj 342 142 spigot;
#X obj 342 85 t f f f;
#X obj 342 161 spigot;
#X floatatom 412 180 5 0 0 0 - - -;
#X obj 431 104 >= 53;
#X obj 412 142 spigot;
#X obj 412 85 t f f f;
#X obj 412 161 spigot;
#X floatatom 482 180 5 0 0 0 - - -;
#X obj 501 104 >= 53;
#X obj 482 142 spigot;
#X obj 482 85 t f f f;
#X obj 482 161 spigot;
#X floatatom 552 180 5 0 0 0 - - -;
#X obj 571 104 >= 53;
#X obj 552 142 spigot;
#X obj 552 85 t f f f;
#X obj 552 161 spigot;
#X obj 101 250 r b0P;
#X obj 171 249 r b1P;
#X obj 241 249 r b2P;
#X obj 311 249 r b3P;
#X obj 381 249 r b4P;
#X obj 451 249 r b5P;
#X obj 521 249 r b6P;
#X obj 591 249 r b7P;
#X obj 67 307 s b7P;
#X obj 67 326 s b1P;
#X obj 137 306 s b0P;
#X obj 137 325 s b2P;
#X obj 207 306 s b1P;
#X obj 207 325 s b3P;
#X obj 277 306 s b2P;
#X obj 277 325 s b4P;
#X obj 347 306 s b3P;
#X obj 347 325 s b5P;
#X obj 417 306 s b4P;
#X obj 417 325 s b6P;
#X obj 487 306 s b5P;
#X obj 487 325 s b7P;
#X obj 557 306 s b6P;
#X obj 557 325 s b0P;
#X obj 67 288 selBts;
#X obj 207 287 selBts;
#X obj 137 287 selBts;
#X obj 277 287 selBts;
#X obj 347 287 selBts;
#X obj 417 287 selBts;
#X obj 487 287 selBts;
#X obj 557 287 selBts;
#X obj 62 269 beatCol;
#X obj 342 268 beatCol;
#X obj 132 268 beatCol;
#X obj 412 268 beatCol;
#X obj 202 268 beatCol;
#X obj 272 268 beatCol;
#X obj 482 268 beatCol;
#X obj 552 268 beatCol;
#X obj 81 123 < 57;
#X obj 151 123 < 57;
#X obj 221 123 < 57;
#X obj 291 123 < 57;
#X obj 361 123 < 57;
#X obj 431 123 < 57;
#X obj 501 123 < 57;
#X obj 571 123 < 57;
#X connect 0 0 2 0;
#X connect 1 0 2 1;
#X connect 2 0 45 0;
#X connect 3 0 0 0;
#X connect 3 1 1 0;
#X connect 4 0 6 0;
#X connect 5 0 6 1;
#X connect 6 0 50 0;
#X connect 7 0 4 0;
#X connect 7 1 5 0;
#X connect 10 0 12 0;
#X connect 11 0 12 1;
#X connect 12 0 55 0;
#X connect 13 0 15 0;
#X connect 14 0 15 1;
#X connect 15 0 60 0;
#X connect 16 0 10 0;
#X connect 16 1 11 0;
#X connect 17 0 13 0;
#X connect 17 1 14 0;
#X connect 20 0 22 0;
#X connect 21 0 22 1;
#X connect 22 0 65 0;
#X connect 23 0 25 0;
#X connect 24 0 25 1;
#X connect 25 0 70 0;
#X connect 26 0 28 0;
#X connect 27 0 28 1;
#X connect 28 0 75 0;
#X connect 29 0 31 0;
#X connect 30 0 31 1;
#X connect 31 0 80 0;
#X connect 32 0 20 0;
#X connect 32 1 21 0;
#X connect 33 0 23 0;
#X connect 33 1 24 0;
#X connect 34 0 26 0;
#X connect 34 1 27 0;
#X connect 35 0 29 0;
#X connect 35 1 30 0;
#X connect 40 0 41 0;
#X connect 41 0 114 1;
#X connect 41 1 116 1;
#X connect 41 2 118 1;
#X connect 41 3 119 1;
#X connect 41 4 115 1;
#X connect 41 5 117 1;
#X connect 41 6 120 1;
#X connect 41 7 121 1;
#X connect 42 0 114 0;
#X connect 43 0 44 1;
#X connect 44 0 46 0;
#X connect 45 0 44 0;
#X connect 45 1 43 0;
#X connect 45 2 122 0;
#X connect 46 0 42 0;
#X connect 47 0 116 0;
#X connect 48 0 49 1;
#X connect 49 0 51 0;
#X connect 50 0 49 0;
#X connect 50 1 48 0;
#X connect 50 2 123 0;
#X connect 51 0 47 0;
#X connect 52 0 118 0;
#X connect 53 0 54 1;
#X connect 54 0 56 0;
#X connect 55 0 54 0;
#X connect 55 1 53 0;
#X connect 55 2 124 0;
#X connect 56 0 52 0;
#X connect 57 0 119 0;
#X connect 58 0 59 1;
#X connect 59 0 61 0;
#X connect 60 0 59 0;
#X connect 60 1 58 0;
#X connect 60 2 125 0;
#X connect 61 0 57 0;
#X connect 62 0 115 0;
#X connect 63 0 64 1;
#X connect 64 0 66 0;
#X connect 65 0 64 0;
#X connect 65 1 63 0;
#X connect 65 2 126 0;
#X connect 66 0 62 0;
#X connect 67 0 117 0;
#X connect 68 0 69 1;
#X connect 69 0 71 0;
#X connect 70 0 69 0;
#X connect 70 1 68 0;
#X connect 70 2 127 0;
#X connect 71 0 67 0;
#X connect 72 0 120 0;
#X connect 73 0 74 1;
#X connect 74 0 76 0;
#X connect 75 0 74 0;
#X connect 75 1 73 0;
#X connect 75 2 128 0;
#X connect 76 0 72 0;
#X connect 77 0 121 0;
#X connect 78 0 79 1;
#X connect 79 0 81 0;
#X connect 80 0 79 0;
#X connect 80 1 78 0;
#X connect 80 2 129 0;
#X connect 81 0 77 0;
#X connect 82 0 114 2;
#X connect 83 0 116 2;
#X connect 84 0 118 2;
#X connect 85 0 119 2;
#X connect 86 0 115 2;
#X connect 87 0 117 2;
#X connect 88 0 120 2;
#X connect 89 0 121 2;
#X connect 106 0 90 0;
#X connect 106 1 91 0;
#X connect 107 0 94 0;
#X connect 107 1 95 0;
#X connect 108 0 92 0;
#X connect 108 1 93 0;
#X connect 109 0 96 0;
#X connect 109 1 97 0;
#X connect 110 0 98 0;
#X connect 110 1 99 0;
#X connect 111 0 100 0;
#X connect 111 1 101 0;
#X connect 112 0 102 0;
#X connect 112 1 103 0;
#X connect 113 0 104 0;
#X connect 113 1 105 0;
#X connect 114 0 8 0;
#X connect 114 1 106 0;
#X connect 115 0 36 0;
#X connect 115 1 110 0;
#X connect 116 0 9 0;
#X connect 116 1 108 0;
#X connect 117 0 37 0;
#X connect 117 1 111 0;
#X connect 118 0 18 0;
#X connect 118 1 107 0;
#X connect 119 0 19 0;
#X connect 119 1 109 0;
#X connect 120 0 38 0;
#X connect 120 1 112 0;
#X connect 121 0 39 0;
#X connect 121 1 113 0;
#X connect 122 0 46 1;
#X connect 123 0 51 1;
#X connect 124 0 56 1;
#X connect 125 0 61 1;
#X connect 126 0 66 1;
#X connect 127 0 71 1;
#X connect 128 0 76 1;
#X connect 129 0 81 1;
#X coords 0 0 1 1 20 35 0;
