#N canvas 510 437 523 409 10;
#X obj 23 174 timer;
#X obj 23 16 bng 15 250 50 0 empty empty empty 17 7 0 10 -262144 -1
-1;
#X obj 23 152 bng 15 250 50 0 empty empty empty 17 7 0 10 -262144 -1
-1;
#X obj 68 152 bng 15 250 50 0 empty empty empty 17 7 0 10 -262144 -1
-1;
#X obj 23 85 f 0;
#X obj 51 85 + 1;
#X obj 23 107 mod 2;
#X obj 23 130 select 0;
#X floatatom 23 249 10 0 0 0 - - -;
#X obj 23 272 swap 60000;
#X obj 23 300 /;
#X floatatom 23 324 5 0 0 0 - - -;
#X obj 23 348 outlet bpm;
#X obj 148 146 bng 15 250 50 0 empty empty empty 17 7 0 10 -262144
-1 -1;
#X obj 148 120 delay 2000;
#X obj 148 69 t b b;
#X msg 175 94 stop;
#X msg 148 171 0;
#X obj 23 225 f 0;
#X obj 148 195 s reset;
#X obj 38 62 r reset;
#X obj 38 200 r reset;
#X text 150 47 if no bangs are recieved for 2 seconds reset everything
;
#X obj 141 350 outlet ms;
#X text 219 329 taptempo - a simple tap tempo control;
#X text 218 347 by Jonathan Siemasko - zombiecontrol@gmail.com;
#X obj 23 -25 inlet;
#X connect 0 0 18 0;
#X connect 1 0 4 0;
#X connect 1 0 15 0;
#X connect 2 0 0 0;
#X connect 3 0 0 1;
#X connect 4 0 5 0;
#X connect 4 0 6 0;
#X connect 5 0 4 1;
#X connect 6 0 7 0;
#X connect 7 0 2 0;
#X connect 7 1 3 0;
#X connect 8 0 9 0;
#X connect 8 0 23 0;
#X connect 9 0 10 0;
#X connect 9 1 10 1;
#X connect 10 0 11 0;
#X connect 11 0 12 0;
#X connect 13 0 17 0;
#X connect 14 0 13 0;
#X connect 15 0 14 0;
#X connect 15 1 16 0;
#X connect 16 0 14 0;
#X connect 17 0 19 0;
#X connect 18 0 8 0;
#X connect 20 0 4 1;
#X connect 21 0 18 1;
#X connect 26 0 1 0;
#X coords 0 0 1 1 20 35 0;
