#N canvas 790 77 743 688 10;
#X obj 52 161 bng 15 250 50 0 empty empty empty 17 7 0 10 -262144 -1
-1;
#X obj 43 540 noteout 1;
#X obj 43 431 == 0;
#X obj 43 460 route 0 1;
#X obj 103 460 route 0 1;
#X obj 163 460 route 0 1;
#X obj 223 460 route 0 1;
#X obj 103 540 noteout 2;
#X obj 163 540 noteout 3;
#X obj 223 540 noteout 4;
#X obj 103 431 == 1;
#X obj 163 431 == 2;
#X obj 223 431 == 3;
#X obj 52 211 +;
#X msg 52 192 1;
#X obj 52 230 % 8;
#X floatatom 52 249 5 0 0 0 - - -;
#X obj 283 460 route 0 1;
#X obj 343 460 route 0 1;
#X obj 403 460 route 0 1;
#X obj 463 460 route 0 1;
#X obj 283 431 == 4;
#X obj 343 431 == 5;
#X obj 403 431 == 6;
#X obj 463 431 == 7;
#X obj 283 540 noteout 5;
#X obj 343 540 noteout 6;
#X obj 403 540 noteout 7;
#X obj 463 540 noteout 8;
#X obj 163 355 s currentBeat;
#X obj 52 142 metro 500;
#X msg 43 479 57 0;
#X msg 103 479 57 0;
#X msg 163 479 57 0;
#X msg 223 479 57 0;
#X msg 283 479 57 0;
#X msg 343 479 57 0;
#X msg 403 479 57 0;
#X msg 463 479 57 0;
#X msg 488 498 57 1;
#X msg 428 498 57 1;
#X msg 368 498 57 1;
#X msg 308 498 57 1;
#X msg 248 498 57 1;
#X msg 188 498 57 1;
#X msg 128 498 57 1;
#X msg 68 498 57 1;
#X obj 103 123 r tempoMs;
#X obj 178 283 delay 0;
#X obj 178 264 t b f;
#X obj 178 302 f;
#X obj 217 264 * 0;
#X obj 217 226 r tempoMs;
#X obj 271 245 / 127;
#X obj 277 226 ctlin 7 8;
#X obj 217 245 trigBoth;
#X obj 52 267 t f f f;
#X obj 94 302 spigot;
#X obj 52 302 spigot;
#X obj 136 302 invert;
#X obj 109 264 == 0;
#X obj 109 283 t f f;
#X obj 109 245 % 2;
#X obj 337 226 r randAll;
#X obj 337 264 < 10;
#X obj 337 302 *;
#X obj 337 283 t f b;
#X obj 373 283 random 127;
#X obj 337 245 random 100;
#X obj -7 125 bonk~;
#X obj -7 87 adc~;
#X obj -7 106 +~;
#X obj 52 104 r playSeq;
#X obj 113 156 r triggerBeat;
#X obj 113 175 t b f;
#X obj -7 144 spigot;
#X obj 29 127 tgl 15 0 empty empty empty 17 7 0 10 -262144 -1 -1 0
1;
#X obj -47 530 noteout;
#X obj -47 416 f;
#X obj -32 397 t f f;
#X obj -14 454 != 8;
#X obj -47 473 spigot;
#X msg -47 454 57;
#X obj -47 435 t b b f;
#X obj 43 355 t f f f f f f f f f;
#X obj 16 336 t b f;
#X obj -8 511 + 1;
#X obj 80 213 r seqLength;
#X obj -32 378 r seqLength;
#X msg -28 492 3;
#X obj 498 158 s tempoMs;
#X floatatom 498 83 5 0 0 0 - - -;
#X obj 498 139 /;
#X obj 498 101 t b f;
#X msg 498 120 30000;
#X connect 0 0 14 0;
#X connect 2 0 3 0;
#X connect 3 0 31 0;
#X connect 3 1 46 0;
#X connect 4 0 32 0;
#X connect 4 1 45 0;
#X connect 5 0 33 0;
#X connect 5 1 44 0;
#X connect 6 0 34 0;
#X connect 6 1 43 0;
#X connect 10 0 4 0;
#X connect 11 0 5 0;
#X connect 12 0 6 0;
#X connect 13 0 15 0;
#X connect 14 0 13 0;
#X connect 15 0 13 1;
#X connect 15 0 16 0;
#X connect 16 0 56 0;
#X connect 17 0 35 0;
#X connect 17 1 42 0;
#X connect 18 0 36 0;
#X connect 18 1 41 0;
#X connect 19 0 37 0;
#X connect 19 1 40 0;
#X connect 20 0 38 0;
#X connect 20 1 39 0;
#X connect 21 0 17 0;
#X connect 22 0 18 0;
#X connect 23 0 19 0;
#X connect 24 0 20 0;
#X connect 30 0 0 0;
#X connect 31 0 1 0;
#X connect 32 0 7 0;
#X connect 33 0 8 0;
#X connect 34 0 9 0;
#X connect 35 0 25 0;
#X connect 36 0 26 0;
#X connect 37 0 27 0;
#X connect 38 0 28 0;
#X connect 39 0 28 0;
#X connect 40 0 27 0;
#X connect 41 0 26 0;
#X connect 42 0 25 0;
#X connect 43 0 9 0;
#X connect 44 0 8 0;
#X connect 45 0 7 0;
#X connect 46 0 1 0;
#X connect 47 0 30 1;
#X connect 48 0 50 0;
#X connect 49 0 48 0;
#X connect 49 1 50 1;
#X connect 50 0 85 0;
#X connect 51 0 48 1;
#X connect 52 0 55 0;
#X connect 53 0 55 1;
#X connect 54 0 53 0;
#X connect 55 0 51 0;
#X connect 55 1 51 1;
#X connect 56 0 58 0;
#X connect 56 1 57 0;
#X connect 56 2 62 0;
#X connect 57 0 49 0;
#X connect 58 0 85 0;
#X connect 59 0 57 1;
#X connect 60 0 61 0;
#X connect 61 0 58 1;
#X connect 61 1 59 0;
#X connect 62 0 60 0;
#X connect 63 0 68 0;
#X connect 64 0 66 0;
#X connect 65 0 53 0;
#X connect 66 0 65 0;
#X connect 66 1 67 0;
#X connect 67 0 65 1;
#X connect 68 0 64 0;
#X connect 69 1 75 0;
#X connect 70 0 71 0;
#X connect 70 1 71 1;
#X connect 71 0 69 0;
#X connect 72 0 30 0;
#X connect 73 0 74 0;
#X connect 74 0 14 0;
#X connect 74 1 13 1;
#X connect 75 0 0 0;
#X connect 76 0 75 1;
#X connect 78 0 83 0;
#X connect 79 0 78 1;
#X connect 79 1 80 0;
#X connect 80 0 81 1;
#X connect 81 0 77 0;
#X connect 82 0 81 0;
#X connect 83 0 82 0;
#X connect 83 1 89 0;
#X connect 83 2 86 0;
#X connect 84 0 2 0;
#X connect 84 1 10 0;
#X connect 84 2 11 0;
#X connect 84 3 12 0;
#X connect 84 4 21 0;
#X connect 84 5 22 0;
#X connect 84 6 23 0;
#X connect 84 7 24 0;
#X connect 84 8 29 0;
#X connect 85 0 78 0;
#X connect 85 1 84 0;
#X connect 86 0 77 2;
#X connect 87 0 15 1;
#X connect 88 0 79 0;
#X connect 89 0 77 1;
#X connect 91 0 93 0;
#X connect 92 0 90 0;
#X connect 93 0 94 0;
#X connect 93 1 92 1;
#X connect 94 0 92 0;
#X coords 0 0 1 1 20 35 0;
